<?xml version="1.0" standalone="no"?>
<!DOCTYPE svg PUBLIC "-//W3C//DTD SVG 1.1//EN" "http://www.w3.org/Graphics/SVG/1.1/DTD/svg11.dtd" >
<svg xmlns="http://www.w3.org/2000/svg">
<metadata></metadata>
<defs>
<font id="joyful_julianaregular" horiz-adv-x="682" >
<font-face units-per-em="2048" ascent="1638" descent="-410" />
<missing-glyph horiz-adv-x="665" />
<glyph horiz-adv-x="0" />
<glyph unicode="&#xd;" horiz-adv-x="569" />
<glyph unicode=" "  horiz-adv-x="665" />
<glyph unicode="&#x09;" horiz-adv-x="665" />
<glyph unicode="&#xa0;" horiz-adv-x="665" />
<glyph unicode="!" horiz-adv-x="292" d="M59 1251q0 33 42 63q63 -11 63 -63v-42l42 -637q0 -252 -49 -252q-63 19 -63 168l14 252v49zM102 41q18 35 70 35q42 -14 42 -28v-14q-24 -42 -63 -42h-21q-28 11 -28 49z" />
<glyph unicode="&#x22;" horiz-adv-x="639" d="M41 1022v14l6 63q56 107 56 126l-17 70q20 53 78 84q46 0 95 -126l-16 -49q-96 -98 -96 -175v-49q0 -102 28 -224l-22 -42h-17q-81 0 -95 308zM377 938l50 189q0 133 84 133q101 -12 101 -98q0 -54 -34 -98q-100 -64 -100 -203q0 -77 61 -217q-17 -42 -33 -42 q-87 0 -129 336z" />
<glyph unicode="#" horiz-adv-x="1443" d="M52 324v49l7 35l364 -14h28l35 35v14l-14 308l-21 14l-7 -7h-7l-336 -21q-35 0 -35 42q0 70 357 70l35 -7q11 0 28 315l7 28l7 7q0 12 42 35q28 0 35 -56l-28 -294h7q191 0 336 77l14 35l-14 217q12 84 56 84q28 -4 28 -56v-77q0 -168 63 -168h21l266 84q32 -14 35 -28 v-21q0 -35 -189 -70l-147 -56q-35 -23 -35 -56q19 -40 35 -357l7 -7q0 -21 14 -21h7q163 0 329 42q29 -10 42 -35v-14q-38 -77 -245 -77q-133 0 -133 -91q0 -38 -56 -70q-42 12 -42 56l-14 63l-35 7h-35q-273 -9 -273 -49l7 -196q0 -44 -35 -63h-28q-33 0 -42 259l-21 14 h-399zM570 450l35 -35h42q287 0 287 56v28q0 357 -42 357q-282 -52 -322 -91v-315z" />
<glyph unicode="$" horiz-adv-x="804" d="M-27 137q7 35 28 49q69 -49 105 -49h161l7 119v28q0 189 -112 189q-112 46 -112 105q10 80 168 280q33 539 84 539l42 14q21 -7 21 -42q-56 -250 -56 -420l21 -7q161 91 287 91h42q54 0 70 -35v-7q0 -49 -35 -49l-56 14q-315 -42 -315 -140l-7 -28v-7q0 -252 49 -252 q406 -70 406 -189q0 -125 -378 -259v-21q0 -82 21 -147q-12 -77 -63 -77h-14q-35 0 -35 189v14l-7 7v7l-147 -7q-175 0 -175 91zM148 613q22 -45 56 -63h7q28 11 28 49v63q0 56 -28 56q-63 -33 -63 -105zM351 382q8 -210 49 -210q238 79 238 126v21q-42 119 -238 119h-21 q-28 -11 -28 -49v-7z" />
<glyph unicode="%" horiz-adv-x="994" d="M32 731q53 245 105 245q82 98 133 98q117 0 161 -133l7 -63q0 -173 -161 -329q-59 -38 -119 -49q-112 50 -112 147zM130 661q0 -54 35 -70h35q133 102 133 196v98q0 59 -42 84h-7q-107 0 -154 -252v-56zM326 -354q0 121 301 1463q43 287 112 287q34 0 56 -56 q-178 -504 -315 -1225q-56 -303 -56 -434v-14q0 -56 -56 -56q-42 7 -42 35zM683 10q0 127 147 308l21 28l7 7h14q84 -70 84 -161q-19 -315 -140 -315h-7q-110 0 -126 133zM795 10l14 -14h7q29 0 56 133v63h-7q-33 0 -70 -154v-28z" />
<glyph unicode="&#x26;" horiz-adv-x="834" d="M77 398q0 77 308 476l14 56v14q0 71 -77 385q12 32 49 56h7q30 -23 98 -336q38 -91 98 -91v-7q0 -15 -294 -322q-77 -108 -77 -154v-14h7q124 15 406 224h35l7 -28q0 -37 -210 -280q-112 -150 -112 -189v-14q98 0 413 273h7q35 -38 35 -63q-4 -52 -133 -119 q-77 -53 -77 -91v-231q3 -127 21 -147q-26 -91 -63 -91q-56 0 -56 203v168q0 36 -21 42h-7q-209 -91 -273 -91l-7 7v21q0 40 154 315v28h-7q-122 -42 -189 -42q-42 0 -56 42z" />
<glyph unicode="'" horiz-adv-x="391" d="M47 1023q37 98 119 98h7q119 -20 119 -119l-28 -84v-14l49 -105l7 -49q0 -110 -140 -238q-42 0 -42 49q56 88 56 154v28q0 89 -140 252z" />
<glyph unicode="(" horiz-adv-x="407" d="M21 544q0 511 266 686q7 21 42 21v-14q-217 -283 -217 -497l-7 -147q0 -467 252 -588q35 -19 35 -56q-7 -28 -42 -28q-103 0 -238 238q-91 221 -91 385z" />
<glyph unicode=")" horiz-adv-x="426" d="M52 25v21q252 264 252 616q11 0 14 105q0 121 -182 420q12 32 42 49q86 0 196 -308q21 -103 28 -231q0 -353 -210 -623q-53 -53 -105 -70q-35 9 -35 21z" />
<glyph unicode="*" horiz-adv-x="1043" d="M107 224v14q32 46 105 91q133 150 133 217v21l-133 182l-7 42q0 46 42 70h21q29 -44 252 -119q23 0 49 91q44 44 84 133l21 14h21q15 0 49 -70q-49 -177 -49 -217v-21q88 -98 266 -98q42 -31 42 -56q0 -77 -154 -77q-175 -28 -175 -112v-133q0 -59 -42 -84h-14 q-31 20 -112 154l-28 7h-7q-60 0 -329 -105h-14zM359 350h7q63 9 63 63l-14 14q-21 0 -56 -56v-21zM366 693q19 -70 63 -70l28 42v21q-7 21 -42 21h-35zM478 511q0 -47 56 -84h21q37 0 49 161q0 36 -21 42h-7q-56 0 -98 -119zM667 504l14 -14q49 0 49 35q-11 42 -49 42 l-14 -21v-42z" />
<glyph unicode="+" horiz-adv-x="901" d="M70 589v21q0 16 49 21l280 -7l7 7v42q0 107 -49 371q14 61 56 91q79 -504 112 -504l287 21q45 0 63 -35q0 -70 -196 -70l-56 14h-7q-84 -29 -84 -42v-7l21 -294q-9 -84 -35 -84h-7q-24 4 -56 105l7 7v133q0 154 -84 154q-308 13 -308 56z" />
<glyph unicode="," horiz-adv-x="569" d="M96 315q0 96 154 147q96 -41 133 -119l7 -21l-28 -77v-14q0 -26 84 -133l21 -105v-7q-33 -259 -147 -259q-14 4 -28 35q56 135 56 182q0 148 -119 203q-133 89 -133 168z" />
<glyph unicode="-" horiz-adv-x="777" d="M85 569q5 56 56 56h280l112 7h168l35 -21q-24 -77 -392 -77h-119q-140 0 -140 35z" />
<glyph unicode="." horiz-adv-x="299" d="M108 67v7q0 49 35 70q66 -19 81 -56v-21q0 -41 -49 -63q-42 0 -67 63z" />
<glyph unicode="/" horiz-adv-x="569" d="M63 46q0 129 182 910q28 60 126 511l70 70h14l7 -7l7 -21h7q-322 -1143 -322 -1463q-13 -35 -42 -35l-7 -7q-42 10 -42 42z" />
<glyph unicode="0" horiz-adv-x="845" d="M40 491v14q0 418 273 742l63 7h7q282 0 427 -511l7 -119q0 -337 -203 -581q-81 -65 -245 -91q-155 50 -238 189q-91 170 -91 350zM117 505q0 -298 196 -434q0 -26 105 -35q159 0 287 259q56 181 56 329q0 328 -294 532h-14l-105 -56q-124 0 -217 -385z" />
<glyph unicode="1" horiz-adv-x="258" d="M44 1061q0 62 63 119q21 -7 21 -42v-28q47 -1022 84 -1022l7 -35v-14q0 -17 -84 -91l-14 14z" />
<glyph unicode="2" horiz-adv-x="938" d="M41 41v28q0 43 84 84q441 380 441 791q-37 91 -98 91h-14q-100 0 -196 -301l-56 -28v7q40 236 133 350q69 70 182 70q105 0 133 -210v-7q-13 -235 -287 -616l-147 -161v-14q9 -28 63 -28q644 0 644 -28v-7q-14 -84 -56 -84q-184 21 -364 21h-357q-105 7 -105 42z" />
<glyph unicode="3" horiz-adv-x="699" d="M27 962q0 61 189 147q73 42 105 42q189 -17 189 -140q-16 -97 -84 -245v-14q0 -24 161 -63q84 -48 84 -154q0 -353 -546 -595h-14l-7 35q0 65 133 84q357 211 357 420v49q0 98 -140 98q-74 0 -301 -126l-21 42q0 52 168 182q119 136 119 252q-11 98 -77 98h-35 q-50 0 -245 -154h-14q-14 0 -21 42z" />
<glyph unicode="4" horiz-adv-x="718" d="M37 476l63 161q42 129 70 406l28 42h14q21 -7 21 -42v-14q0 -70 -63 -441l14 -14l189 -7h70q63 0 63 77v308q0 441 77 441h14q21 -4 21 -56q-42 -118 -42 -434v-175q5 -112 35 -112h14l42 28h7v-21q0 -21 -70 -119q-14 -42 -14 -182v-343q-5 -98 -35 -98h-21 q-26 0 -35 84l21 371l-7 126l-56 21q-317 -12 -413 -35z" />
<glyph unicode="5" horiz-adv-x="811" d="M55 496q79 455 154 455q9 14 231 42q22 3 210 140h21l14 -14q-48 -122 -280 -224q-175 -23 -175 -49q-63 -147 -63 -224l21 -14l147 21h49q281 0 385 -189l14 -56q0 -174 -483 -420l-28 -7q-45 -7 -70 -21h-14q-75 0 -91 70q0 19 35 35l70 -21h14q177 25 399 224 q70 100 70 147q-88 154 -217 154h-63q-103 0 -336 -77z" />
<glyph unicode="6" horiz-adv-x="576" d="M40 443q0 374 133 595h14l21 -21v-14q-98 -238 -98 -511v-7q0 -151 42 -287h7l91 224q108 147 210 147q84 -36 84 -140q0 -448 -294 -448q-38 4 -98 63q-112 119 -112 399zM271 219q0 -27 35 -133h7q123 0 141.5 87.5t26.5 150.5q-7 140 -63 140q-100 0 -147 -238v-7z " />
<glyph unicode="7" horiz-adv-x="691" d="M40 997q14 32 28 35h21q40 -35 105 -35q176 0 420 91q32 -9 35 -28q-42 -765 -42 -1029q0 -55 -49 -91h-28l-14 91l35 924l-7 21h-7q-296 -56 -350 -56q-147 0 -147 77z" />
<glyph unicode="8" horiz-adv-x="523" d="M25 714v14q0 184 224 273l105 14q147 -39 147 -133l-14 -63l14 -56q0 -27 -161 -182q-81 -95 -91 -154q168 -263 168 -280q-53 -168 -154 -168q0 -9 -98 -28q-70 0 -70 161l35 224v28q-105 307 -105 350zM116 665q0 -70 77 -161h21q210 308 210 329v28q-26 56 -119 56 q-137 0 -182 -98l-7 -49v-105zM165 175q33 -133 70 -133h28q49 28 49 98q-60 143 -119 161q-28 -61 -28 -91v-35z" />
<glyph unicode="9" horiz-adv-x="796" d="M40 720q64 234 217 343q114 77 294 77q189 -51 189 -147l-14 -329l21 -665q0 -53 -70 -63q-29 0 -35 147v189q0 497 -28 497q-198 -245 -378 -245l-140 49q-56 71 -56 147zM124 755q17 -147 126 -147h35q145 0 322 266l14 70v35q0 77 -140 77h-49q-217 -47 -217 -126 q-91 -98 -91 -133v-42z" />
<glyph unicode=":" horiz-adv-x="280" d="M44 293v7q30 49 91 49h7l28 -28v-7q-25 -49 -70 -49q-56 7 -56 28zM93 664q0 28 63 49q44 0 63 -35v-7q-1 -19 -70 -42q-56 12 -56 35z" />
<glyph unicode=";" horiz-adv-x="355" d="M-1 -360q113 126 154 308v56q0 65 -42 238q0 44 56 49h7q36 -10 91 -238q-101 -434 -231 -434h-14zM195 669q26 56 84 56l28 -21q0 -63 -77 -63z" />
<glyph unicode="&#x3c;" horiz-adv-x="792" d="M25 365v21l595 497h7q29 -10 42 -35v-14q-328 -258 -448 -399v-21q5 -14 98 -42q167 -74 329 -217q100 -66 105 -84v-14q-30 -42 -56 -42q-66 0 -287 203q-150 107 -371 140l-7 7h-7z" />
<glyph unicode="=" horiz-adv-x="804" d="M58 494q5 56 56 56h280l280 7l35 -21q-24 -77 -392 -77h-119q-140 0 -140 35zM142 165q0 34 49 35v7l231 -7q246 0 336 -28v-14q0 -35 -231 -35q-385 0 -385 42z" />
<glyph unicode="&#x3e;" horiz-adv-x="695" d="M81 951q0 49 77 63q31 0 77 -154q93 -143 329 -245q91 -63 91 -84q0 -63 -245 -343q-17 -30 -49 -42q-63 16 -63 35v7q0 41 189 224q35 39 35 84q0 63 -161 126q-280 213 -280 329z" />
<glyph unicode="?" horiz-adv-x="650" d="M18 1080q52 138 266 238l56 7q197 0 238 -77l28 -84q-13 -165 -287 -539l-7 -28q0 -69 77 -336q-17 -54 -42 -63h-21q-56 0 -63 217q-70 158 -70 252q0 70 56 70q102 0 245 350l7 70q-50 70 -175 70q-61 0 -252 -196h-7q-21 0 -49 49zM282 1q0 19 35 35q63 -39 63 -70 q-14 -56 -28 -56h-21q-49 33 -49 91z" />
<glyph unicode="@" horiz-adv-x="1005" d="M59 455v49q0 178 91 441q142 254 406 357q169 -60 336 -308q77 -138 77 -294v-77q-30 -357 -63 -357q-98 -277 -203 -329q-68 -29 -189 -49l-189 63q-14 0 -147 147q-77 61 -119 357zM143 518q0 -420 294 -525q32 -14 91 -14h21q134 0 203 196v28q0 14 -91 21 q-21 105 -42 105h-14q0 -68 -147 -140l-42 -7q-70 24 -70 98v49q0 235 217 448l98 49h7q77 0 77 -105v-357l14 -14q55 0 133 175l14 161q0 215 -189 427q-102 91 -161 91h-14q-228 -93 -350 -371q-49 -204 -49 -315zM423 378q4 -126 35 -126q70 0 119 154q53 95 56 154v63 q0 77 -56 77q-91 -88 -154 -322z" />
<glyph unicode="A" horiz-adv-x="1032" d="M32 45q77 215 77 315l-7 77q98 57 98 161q165 467 196 476h28l7 -7q14 0 14 -42l21 -7q127 91 168 91q120 0 259 -574q32 -53 49 -294l70 -189q0 -28 -63 -49q-79 0 -140 378l-7 7v7h-210q-378 -12 -378 -63q-79 -343 -133 -357h-21q-28 8 -28 70zM291 493q0 -14 21 -14 q455 8 455 49v49q-38 253 -126 378l-49 35h-28q-47 0 -196 -245q-77 -163 -77 -203v-49z" />
<glyph unicode="B" horiz-adv-x="957" d="M15 1175q0 41 56 70h14q53 -70 105 -70h14l126 42h56q210 -15 210 -105v-7q0 -105 -126 -315v-7q0 -14 238 -35q224 -77 224 -238q0 -323 -343 -455q0 -32 -329 -84q-175 0 -175 119l-14 112v490zM141 979l28 -308h14q315 212 315 378q0 63 -168 63h-21q-168 0 -168 -133 zM169 202q0 -126 49 -126l91 -7q105 0 273 56q45 0 148.5 78t103.5 230v14q-20 210 -196 210l-98 7q-189 0 -371 -147v-126v-189z" />
<glyph unicode="C" horiz-adv-x="807" d="M44 288v28q0 396 245 602q183 154 329 154q57 0 84 -91l-7 -7l-140 7h-35q-188 -67 -301 -252q-91 -174 -91 -357q0 -226 154 -301q62 -28 133 -28q157 0 364 168h14v-7q-126 -238 -413 -238q-237 0 -308 203q-28 58 -28 119z" />
<glyph unicode="D" horiz-adv-x="823" d="M32 964q0 105 91 105l49 -7l147 28h35q258 0 427 -350q21 -72 21 -133q0 -397 -413 -644l-168 -21q-44 0 -77 84q-49 25 -49 119v126q0 378 -63 693zM144 901q63 -615 63 -847l56 -14h56q167 0 329 294q56 97 56 217v98q0 156 -224 322q-62 35 -98 35h-14 q-189 0 -224 -70v-35z" />
<glyph unicode="E" horiz-adv-x="673" d="M19 966q105 84 259 84h196q49 0 70 -35q0 -56 -371 -56q-35 0 -35 -168l-14 -196l7 -7h7l133 -7q187 7 294 35l21 -7v-21q0 -49 -427 -119q-17 -19 -21 -84q0 -105 77 -301h7q166 70 280 91q0 17 98 28v7q35 -11 35 -49q0 -51 -203 -70l-280 -154q-40 0 -84 294 q-35 124 -35 378l7 56l-7 70l7 49l-7 70v56z" />
<glyph unicode="F" horiz-adv-x="823" d="M6 507v21q24 42 70 42l112 -28h7q30 0 49 371q0 71 168 182q71 35 196 35h35q151 0 175 -49v-14q-7 -21 -42 -21h-231q-217 0 -217 -245v-119l7 -140l70 -7h119l224 21q42 -4 42 -21v-7q0 -77 -224 -77h-126q-52 0 -56 -21v-14l42 -280v-49q0 -108 -63 -154h-14 q-35 18 -35 56v182q-25 273 -91 273q-217 35 -217 63z" />
<glyph unicode="G" horiz-adv-x="865" d="M32 334q0 199 224 539q116 147 238 147q77 0 105 -42v-28q-174 -18 -203 -35q-99 -87 -175 -245q-84 -168 -84 -364q57 -245 210 -245h21q112 0 203 245v42q0 44 -217 77l-28 35q0 58 84 77l224 -7q71 0 168 21q19 0 35 -35q0 -75 -140 -91q-46 -226 -203 -399 q-41 -42 -133 -63q-236 0 -315 280z" />
<glyph unicode="H" horiz-adv-x="761" d="M11 1037q27 70 84 70q42 0 42 -364q10 -210 35 -210l252 -14h84l35 7v42q0 122 -70 350q23 84 56 84h14q41 0 140 -560q0 -227 56 -392q0 -31 -63 -56q-65 0 -112 434h-105l-63 7l-70 -7h-140l-35 -7v-441q0 -51 -21 -56h-14q-70 0 -70 112l14 427q0 295 -49 574z" />
<glyph unicode="I" horiz-adv-x="209" d="M36 668l8 427q11 133 63 133q35 0 35 -84v-77q-1 -94 -1 -182q0 -536 42 -819q-28 -70 -77 -70q-56 0 -56 98v70z" />
<glyph unicode="J" horiz-adv-x="790" d="M44 168v28q10 70 63 70q20 -189 119 -189h42q259 0 301 287l14 175q16 112 16 185q0 135 -55 135q-11 0 -24 -5l-217 -63q-19 3 -28 35q0 72 145 106.5t331 82.5q59 46 231 98q28 -10 28 -21v-14q-59 -105 -231 -105q-84 -26 -84 -49q-20 -714 -123 -829.5t-332 -115.5 q-196 0 -196 189z" />
<glyph unicode="K" horiz-adv-x="635" d="M7 881q32 28 49 28q49 0 126 -420l21 -21q49 0 259 210h28l7 -21q0 -48 -189 -238q-21 -26 -21 -49q116 -199 245 -322l7 -7h7l63 7l7 -7v-14q-16 -98 -91 -98q-135 95 -245 252q-44 84 -56 84h-21v-133q0 -161 -84 -161q-15 0 -35 56l7 84q0 396 -84 770z" />
<glyph unicode="L" horiz-adv-x="690" d="M15 1138q0 38 42 56q67 0 105 -686q37 -392 70 -392q96 -49 245 -49l182 14l7 -35q0 -84 -105 -84q-455 20 -455 98v210l-7 7l7 7v7q0 109 -91 847z" />
<glyph unicode="M" horiz-adv-x="1057" d="M19 16q0 60 70 427l28 315v126q0 56 63 56q67 0 133 -189q16 -5 98 -196l7 -7h14q74 145 210 546q44 63 56 63h21q61 0 77 -140q91 -201 224 -959l7 -63q-18 -70 -63 -70q-77 0 -77 336q-98 508 -182 707h-14q-26 -37 -210 -602q-42 -49 -77 -49q-44 0 -91 210 q-67 141 -105 168h-14q-110 -728 -147 -728h-7q-16 0 -21 49z" />
<glyph unicode="N" horiz-adv-x="966" d="M45 619q25 49 56 49q42 0 133 -84q26 0 105 -112q274 -246 434 -315h7q35 13 35 56v77q0 160 -154 637l-7 21h-7q0 66 105 77q39 0 49 -210q70 -228 133 -595q0 -189 -105 -189q-101 0 -525 322h-14l-14 -14v-84q0 -303 49 -413q0 -80 -77 -105q-70 0 -70 700 q0 30 -133 182z" />
<glyph unicode="O" horiz-adv-x="619" d="M40 342q0 466 182 574l42 14q28 0 28 -77q168 -53 231 -161q35 -74 70 -280q-58 -293 -168 -392q-86 -49 -196 -49q-69 0 -154 154q-35 121 -35 217zM131 377q0 -245 112 -308l7 -7h56q122 0 189 294v49q0 285 -175 350l-42 14h-63q-80 -40 -84 -287v-105z" />
<glyph unicode="P" horiz-adv-x="740" d="M-5 777q161 252 427 252q294 0 294 -126v-7q0 -174 -343 -434l-14 -28q21 -183 77 -413q0 -36 -42 -63h-35q-21 0 -98 392l-7 7h-70q-37 0 -63 21q0 58 91 77q28 30 28 56v91l-42 294h-14l-154 -133h-28v14h-7zM303 917q16 -364 56 -364h7q107 17 252 273v49 q0 98 -140 98h-77q-98 -11 -98 -56z" />
<glyph unicode="Q" horiz-adv-x="1020" d="M32 257v70q0 332 329 616l84 35q117 0 175 -119q175 -202 175 -336v-238q24 -32 266 -133q21 -18 21 -42v-77l-7 -35h-14q-74 86 -287 175l-7 7h-14q-11 0 -140 -154q-145 -105 -252 -105h-42q-146 0 -266 224zM123 341q0 -263 182 -329l63 -14q175 0 259 182v42 q0 23 -224 112l-14 28q0 34 56 63q189 -91 224 -91h14q35 16 35 70q0 280 -140 357l-56 21h-56l-77 -14h-7q0 57 119 112v28h-42q-163 0 -308 -357q-28 -57 -28 -168v-42z" />
<glyph unicode="R" horiz-adv-x="915" d="M28 818q0 20 84 70l35 -7q45 0 175 105q75 21 126 21h35q91 0 91 -98v-7q0 -156 -224 -385l-49 -63q0 -58 266 -210q130 -128 392 -182l7 -7v-21q0 -61 -91 -70q-188 73 -602 350l-49 14h-7l-7 -21q7 -208 21 -273q-42 -84 -91 -84q-66 0 -91 406l7 189v21 q-7 252 -28 252zM161 671q12 -168 49 -168q114 0 259 329q0 67 -77 84h-21q-133 0 -210 -245z" />
<glyph unicode="S" horiz-adv-x="685" d="M36 63l7 28h14l105 -28h7q174 0 350 196l14 49v21q0 68 -259 182q-133 115 -133 168q0 119 238 308q178 105 280 105h21q91 0 91 -56q0 -36 -21 -42h-7q-34 28 -98 28q-220 0 -385 -259l-7 -42q0 -133 231 -203q161 -61 161 -147q0 -171 -252 -308q-173 -84 -259 -84 q-76 0 -98 84z" />
<glyph unicode="T" horiz-adv-x="757" d="M-5 776v14q0 55 413 84q500 58 693 112h14q42 -7 42 -21v-28q0 -22 -455 -91q-154 0 -154 -70v-63q0 -315 42 -644q0 -81 -56 -119h-21q-49 0 -59.5 210t-10.5 476l14 175l-434 -42z" />
<glyph unicode="U" horiz-adv-x="857" d="M36 807q0 63 105 63l14 -42v-119q0 -416 112 -693l28 -21h14q121 0 252 392q49 222 49 518q0 38 49 49q51 0 84 -315q63 -313 77 -469l14 -21q0 -37 -49 -70h-35q-63 0 -63 308l-21 21q-15 -3 -112 -273q-127 -231 -252 -231q-133 0 -154 182l-35 119q-33 96 -56 483 q-9 0 -21 119z" />
<glyph unicode="V" horiz-adv-x="723" d="M15 723q10 35 49 35h21q52 0 119 -182l245 -441h7q37 0 87 525t81 525l56 14q35 -11 35 -42q-56 -188 -82.5 -652t-106.5 -510q-34 -28 -84 -28q-13 0 -91 105z" />
<glyph unicode="W" horiz-adv-x="1007" d="M19 749l42 14q84 0 84 -196q49 -390 112 -560h21q27 122 70 686q0 59 84 70q56 0 280 -399q61 -136 112 -189h21q21 77 42 301q-14 81 -28 413q0 51 63 56q56 0 56 -119q0 -763 -56 -763q-10 -23 -56 -42q-124 0 -329 441q-80 119 -91 119h-7q-23 0 -42 -560 q-23 -133 -105 -203l-28 -14q-77 0 -133 294q-84 328 -84 448q-21 0 -28 203z" />
<glyph unicode="X" horiz-adv-x="685" d="M57 1122q10 29 35 42h35q37 0 196 -483l56 -105q60 69 147 504q31 91 70 91q35 -11 35 -42q0 -90 -161 -609l-14 -63v-35q80 -294 140 -294l42 -56q-4 -28 -56 -28q-55 0 -182 189q-67 -53 -182 -413q-57 -84 -98 -84q-43 16 -49 42q245 494 245 595v28q0 25 -175 490 q-54 203 -84 231z" />
<glyph unicode="Y" horiz-adv-x="581" d="M32 759q0 37 49 77h28q34 -24 168 -245q79 -91 98 -91q42 0 98 490q38 161 84 161q28 -7 28 -28q-105 -584 -105 -665q42 -19 42 -49q0 -23 -63 -154q-30 -553 -77 -553l-7 -7h-7q-35 5 -35 35h-7l49 609q-226 230 -322 399z" />
<glyph unicode="Z" horiz-adv-x="786" d="M19 82q352 539 469 917v49q0 37 -364 63l-35 63q0 53 56 77l168 -63h7l238 7q42 -16 42 -49q0 -164 -364 -847q-49 -121 -49 -154v-14q49 -63 280 -63h126l133 7q49 -12 49 -28v-7q-31 -98 -56 -98q-152 21 -686 56z" />
<glyph unicode="[" horiz-adv-x="569" d="M49 1150q0 245 259 245h35q77 0 77 -21v-14q0 -33 -161 -42q-119 -70 -119 -175q0 -106 84 -483l14 -182l-7 -98v-280q0 -70 280 -70h28q99 0 112 -49q0 -42 -70 -56q-497 35 -497 119v14q70 168 70 203q0 394 -84 714z" />
<glyph unicode="\" horiz-adv-x="569" d="M40 1448q0 91 63 91q28 -7 28 -42v-28q0 -120 140 -602l238 -889v-7q-7 -21 -42 -21h-21q-63 0 -63 154q-126 625 -329 1260z" />
<glyph unicode="]" horiz-adv-x="569" d="M53 1478v7q0 11 56 42q182 -84 357 -84l28 -7q42 -26 42 -84q-63 -1372 -84 -1372l-280 -42q-82 14 -98 49q0 59 182 70q84 0 84 70q91 906 91 1169q0 87 -252 112q-126 47 -126 70z" />
<glyph unicode="^" horiz-adv-x="1572" d="M111 813q57 217 93 226t166 61q189 0 364 -112l77 -77l126 147q201 147 308 147q273 -53 273 -252q0 -204 -448 -630q-46 -52 -91 -231l-63 -42q-70 0 -70 203q-123 179 -245 224q-130 35 -385 77q-122 88 -105 259zM209 778q0 -161 217 -161q234 -42 350 -140l161 -140 q224 195 413 434q25 33 56 168v7q0 119 -175 168h-35q-155 -50 -287 -294q-59 -63 -126 -63q-31 5 -133 175q-124 84 -182 84h-70q-189 -41 -189 -189v-49z" />
<glyph unicode="_" horiz-adv-x="723" d="M40 27q5 56 56 56h280l280 7l35 -21q-24 -77 -392 -77h-119q-140 0 -140 35z" />
<glyph unicode="`" horiz-adv-x="5810" d="M198 132q-18 95 200 259q69 14 83 52q-63 63 -72 114q-37 190 81 280q32 27 79 36q46 9 180 -122l21 4q101 198 200 217q142 6 162 -97q8 -45 -58 -254l16 -11q210 169 498 224l35 7q393 -17 520 -71q356 -92 756 -339q341 -261 497 -318l13 3l-1 7q-44 77 -57 146 q-53 275 44 478l45 23q47 9 84 -105q102 -69 219 -392l75 -392q104 -75 467 -131q362 -1 536 32l26 12l50 3q284 55 542 289q164 200 192 486q21 26 44 30l14 3q55 10 63 -31l8 -41q-25 -208 -161 -423q-288 -326 -933 -450q-603 3 -808 86q-27 12 -138 17 q-161 144 -198 140q-83 39 -227 141l-167 89q-106 -56 -145 -64q-355 -68 -444 14l-247 96q-5 29 -223 49l-29 37q13 134 381 245l7 1q13 3 10 23q-128 123 -688 203q-44 6 -356 -40q-70 -13 -156 -116l5 -27q161 -132 179 -222q30 -156 -240 -239q-48 -9 -127 33l-14 -3 q-139 -233 -250 -254q-121 -24 -175 165l-14 76l-14 -3q-136 -76 -204 -89q-162 -11 -186 114zM291 171l7 -41q30 -37 84 -27l21 4q279 144 262 229q-29 15 -52 11l-110 -21q-177 -34 -212 -155zM478 606q17 -91 194 -119q72 33 57 110q-73 208 -179 187l-27 -5 q-66 -65 -45 -173zM717 103l15 -75q10 -55 58 -46l7 2q170 82 147 199l-5 27q-12 61 -68 94l-28 -5q-128 -25 -126 -196zM846 727l5 -99l2 -7l40 -99l21 4q124 151 120 266l-15 75l-33 22q-122 -23 -140 -162zM1029 370l9 -48q90 -132 152 -120q119 22 118 129 q-23 115 -144 115l-68 -13q-42 -8 -67 -63zM2262 337l2 -14q83 -67 399 -180l313 39l19 11l-4 20q-193 177 -273 162q-146 50 -310 18l-14 -2q-59 -12 -132 -54zM3428 390l17 -89q8 -40 160 -240q23 -117 85 -105q15 31 8 66l-18 96q-48 250 -218 428l-8 6l-7 -1 q-38 -29 -19 -161z" />
<glyph unicode="a" horiz-adv-x="819" d="M40 107q0 181 54 292.5t174.5 276t289.5 236.5l63 7q105 -37 105 -105v-140l-7 -189q0 -288 70 -504q-5 -77 -63 -77q-61 0 -77 434l-14 98h-7q-126 -257 -217 -371q-119 -119 -210 -119q-161 36 -161 161zM131 135q0 -77 63 -77h35q215 0 378 567v147q0 52 -21 56h-14 q-168 -37 -378 -399q-63 -173 -63 -245v-49z" />
<glyph unicode="b" horiz-adv-x="773" d="M32 1079q13 56 28 56h35q42 0 42 -413l7 -217l7 -21h14q189 224 343 224l84 7q161 0 161 -196q0 -190 -217 -483q-105 -91 -210 -91h-28q-72 0 -168 63q-64 0 -77 21l7 175v126zM179 176q38 -133 119 -133h35q224 0 343 455q-38 140 -147 140h-35q-150 0 -273 -252 q-42 -119 -42 -210z" />
<glyph unicode="c" horiz-adv-x="706" d="M41 235v35q0 359 322 602l91 21q57 -20 77 -49l-154 -56q-245 -180 -245 -476v-14q0 -168 154 -252l91 -14h42q122 0 210 91h28v-28q-50 -90 -196 -140l-77 -21q-147 0 -294 147q-49 87 -49 154z" />
<glyph unicode="d" horiz-adv-x="719" d="M31 945l70 210l42 14q42 0 42 -77t133 -77q173 -30 231 -98q133 -137 133 -273q0 -359 -441 -693q-62 -40 -133 -56q-70 20 -70 42v21q63 56 63 105v147l-21 672zM192 931q0 -868 49 -868h7q191 115 301 399q28 78 28 147q-48 322 -322 322l-63 7v-7z" />
<glyph unicode="e" horiz-adv-x="694" d="M27 403q0 188 105 427q74 117 169 117q20 0 41 -5h14q151 0 259 -259l35 -49v-21q0 -65 -462 -105q-63 0 -63 -70q21 -420 210 -420h105q179 210 196 210h14l7 -21q-127 -266 -301 -266h-21q-225 0 -294 350zM153 592h7l56 -7q259 11 259 56v70q-23 154 -140 154h-28 q-94 -8 -154 -252v-21z" />
<glyph unicode="f" horiz-adv-x="623" d="M-60 608q0 32 93 35q147 34 147 98q86 394 147 476q95 77 203 77h7q151 0 273 -154v-14q-3 -14 -35 -28q-15 0 -133 91q-49 28 -133 35q-164 0 -217 -448v-63l21 -21l329 56l14 -21v-21q0 -42 -378 -84l35 -588q-16 -105 -42 -105h-35q-35 0 -42 105l-28 469v70l-21 21 h-7q-86 0 -163 -28q-35 4 -35 42z" />
<glyph unicode="g" horiz-adv-x="769" d="M37 236q0 241 231 441q153 63 288 63q30 0 59 -3l22 111l83 -26q-25 -57 -25 -243q42 -177 42 -322v-21q0 -553 -462 -651l-56 -7q-63 0 -126 63v7l49 28l7 -7h77q210 0 357 203q70 161 70 420l-14 21q-14 0 -175 -217q-96 -77 -189 -77h-21q-217 19 -217 217zM135 229 q0 -126 133 -126h63q84 0 231 259q28 43 28 203q0 91 -98 91h-56q-301 -55 -301 -385v-42z" />
<glyph unicode="h" horiz-adv-x="878" d="M36 21q70 267 70 511v693q0 42 77 70q42 -9 42 -112l-7 -77l-7 -448l7 -21h21q222 189 308 189q119 0 238 -238q49 -199 49 -385v-140q0 -126 -91 -126q-49 6 -49 42q28 96 28 175q0 511 -189 581l-35 7q-79 0 -231 -210q-47 -150 -84 -525q-41 -53 -84 -70q-44 0 -63 84 z" />
<glyph unicode="i" horiz-adv-x="272" d="M44 766q0 51 91 70q49 -10 49 -77l-14 -427q0 -139 35 -273v-7q-10 -26 -84 -56q-30 0 -56 49l7 7v189q0 382 -28 525zM79 1151v42q21 35 56 35q39 0 63 -35q-28 -56 -77 -56z" />
<glyph unicode="j" horiz-adv-x="706" d="M45 99q9 35 21 35h14q126 -65 210 -91q32 -14 91 -14h63q133 93 133 308l-49 595q0 168 91 168l28 -21q-35 -166 -35 -252v-7q49 -293 49 -588q-58 -273 -266 -273q-246 0 -350 140z" />
<glyph unicode="k" horiz-adv-x="844" d="M15 173q70 66 70 168l7 315v147q0 172 -14 273q0 37 70 49l56 -21q-14 -108 -21 -497h7l-7 -7l7 -140v-56h7q54 0 182 259q180 354 238 364l28 7h7v-14h7q-126 -256 -448 -770l-7 -49q94 -122 553 -189q165 -19 168 -42q0 -46 -77 -70q-385 77 -658 182q-46 -77 -98 -98 q-56 0 -56 140l-7 7q-5 42 -14 42z" />
<glyph unicode="l" horiz-adv-x="614" d="M48 77q35 410 35 686v28q0 187 -14 280q7 35 28 49q91 -18 91 -91l-21 -819v-133q0 -14 21 -14q164 0 301 56q91 -16 91 -42v-14q0 -53 -385 -84q-147 0 -147 98z" />
<glyph unicode="m" horiz-adv-x="1250" d="M32 44q56 311 56 434v56l-14 266q8 49 63 49h21q26 0 35 -91q37 0 105 112l77 70q27 14 77 14q140 0 224 -350q13 -63 28 -63q42 26 126 168q123 161 217 161q55 0 126 -126q21 -45 35 -168l-7 -280v-245q0 -56 -70 -56q-56 0 -77 35q28 120 49 497q0 162 -98 259 q-141 -128 -203 -294q-63 -157 -119 -378q-51 -28 -77 -28q-49 15 -49 42q42 171 42 259q0 388 -182 497h-21q-102 -72 -147 -245q-84 -330 -84 -686q-28 -23 -70 -28q-63 0 -63 119z" />
<glyph unicode="n" horiz-adv-x="798" d="M45 888q16 84 42 84h21q49 0 49 -294l28 -35h7q157 343 336 343q170 0 224 -602l7 -70l-7 -42v-14q0 -297 -70 -308q-23 0 -49 49q28 170 28 357q-31 518 -196 518q-87 0 -231 -315q-49 -133 -49 -287l7 -203q-19 -91 -56 -91q-49 18 -49 119v140q0 481 -42 651z" />
<glyph unicode="o" horiz-adv-x="665" d="M36 324q32 331 196 532q59 77 105 77q49 0 49 -98q168 -128 168 -140q56 -50 77 -203q0 -244 -210 -448q-33 -39 -168 -56q-131 0 -196 210zM120 310q45 -217 161 -217h7q183 0 252 287l7 63v63q0 128 -224 224h-42q-123 0 -161 -399v-21z" />
<glyph unicode="p" horiz-adv-x="716" d="M8 883v7l35 49l-14 84q5 28 56 49l56 -28l196 7q254 0 343 -245q0 -116 -196 -294q-266 -139 -266 -210q1 -36 1 -69q0 -255 -63 -255q-28 7 -28 35l-22 303l-35 28q42 61 42 105v7q-21 392 -77 392zM155 883q0 -61 70 -448h21q329 184 329 308v98q0 70 -175 133h-112 q-133 0 -133 -84v-7z" />
<glyph unicode="q" horiz-adv-x="794" d="M44 198v21q20 271 147 511q79 82 182 119q59 0 231 -217q49 -110 49 -189l-28 -182v-21q22 -49 63 -49q49 0 49 14q28 -7 28 -42v-28l-14 -14l-175 21q-229 -217 -322 -217q-155 0 -210 273zM135 233q15 -203 112 -203h42q120 0 168 147v7q-230 111 -245 210v14 q0 16 35 21q52 0 119 -84q105 -77 140 -77q49 25 49 70v77q0 243 -189 315h-14q-148 0 -210 -434z" />
<glyph unicode="r" d="M36 -14q28 784 77 784l35 7h7q11 0 28 -49h28q72 64 224 84q140 -17 140 -98v-14q0 -145 -238 -420q0 -74 287 -224q67 -35 147 -35h21l49 7l7 -7v-49q0 -56 -70 -56q-153 0 -546 259h-21q-23 0 -35 -182l-14 -35l-49 -35q-77 28 -77 63zM176 364q0 -63 35 -63 q167 87 245 301l7 35v42q-14 28 -42 42h-42q-140 0 -196 -224l-7 -98v-35z" />
<glyph unicode="s" horiz-adv-x="731" d="M48 456q4 90 175 308q220 182 315 182q105 -29 105 -91q-7 -49 -21 -49h-14q-45 49 -70 49h-14q-187 0 -357 -315l-7 -42v-7q0 -79 133 -105h49l126 21q151 0 217 -112l7 -21q0 -129 -203 -252q-97 -98 -252 -98q-132 0 -147 84v14q0 52 21 56h28q66 -63 119 -63h28 q287 89 287 224v21q0 54 -161 63l-105 -21h-7q-252 46 -252 154z" />
<glyph unicode="t" horiz-adv-x="569" d="M-6 623v49q0 59 196 127q56 46 56 63q0 208 -42 448q0 43 56 63q63 -10 63 -56l-7 -413l21 -14h7l210 98q21 -7 21 -42q-14 -91 -42 -91h-56q-147 -41 -147 -91q0 -146 63 -700q0 -37 -49 -77h-7q-42 0 -42 364q-7 218 -42 392q-116 -37 -238 -120h-21z" />
<glyph unicode="u" horiz-adv-x="790" d="M61 291q27 595 91 595h14q12 0 21 -35q-35 -199 -49 -609q0 -175 105 -175q150 0 322 539q0 322 63 322q56 0 56 -343q0 -323 77 -539v-7q-53 -70 -91 -70q-24 0 -63 420l-7 7q0 21 -14 21h-7q-12 -2 -133 -266q-128 -210 -252 -210q-133 0 -133 350z" />
<glyph unicode="v" horiz-adv-x="631" d="M24 764q14 49 49 49q73 0 105 -217q119 -382 175 -413q154 248 154 546q11 133 77 133q35 -8 35 -56q-158 -819 -259 -819h-42q-80 81 -147 343q-117 294 -147 434z" />
<glyph unicode="w" horiz-adv-x="1012" d="M40 833q0 33 77 77q56 0 84 -497l35 -315h14q44 0 154 693q19 49 56 49q57 0 168 -294q93 -279 147 -392h7q66 0 91 602l-7 98q14 52 49 70h21q30 -17 42 -49q-85 -917 -203 -917h-14q-46 0 -259 609l-42 56q-23 -18 -70 -343q-51 -260 -161 -371l-21 -14h-7 q-49 0 -77 434l-42 329z" />
<glyph unicode="x" horiz-adv-x="660" d="M7 -120q0 45 133 266l126 238v7q-37 116 -238 399v28l21 21q108 0 252 -315h14q108 206 161 245h14l7 -21q-49 -155 -133 -322q80 -143 273 -357v-14h7q-18 -55 -42 -70h-21q-50 39 -245 308l-7 7h-7q-79 -66 -231 -434q-33 -39 -49 -42q-35 8 -35 56z" />
<glyph unicode="y" horiz-adv-x="619" d="M19 717q0 37 49 77h28q34 -24 168 -245q79 -91 98 -91q42 0 98 490q38 161 84 161q28 -7 28 -28q-105 -584 -105 -665q42 -19 42 -49q0 -23 -63 -154q-30 -553 -77 -553l-7 -7h-7q-35 5 -35 35h-7l49 609q-226 230 -322 399z" />
<glyph unicode="z" horiz-adv-x="782" d="M61 -7q0 68 210 308q259 417 259 518v49q-455 15 -455 70l-7 7q0 47 70 77q33 -28 399 -35l63 7q40 0 56 -42q-62 -285 -420 -847v-7q45 -35 210 -35q126 0 245 28q42 0 56 -42q0 -91 -238 -91h-140l-294 7z" />
<glyph unicode="{" horiz-adv-x="581" d="M-29 556v14q0 98 196 98q63 16 63 28q25 530 147 567q84 84 147 84h14l28 -28q0 -38 -84 -70q-133 -129 -133 -294v-77q0 -85 91 -217v-7q0 -38 -182 -70l-7 -7v-7q0 -22 147 -35l7 -21q0 -22 -133 -210q-70 -92 -70 -280v-56q24 -133 133 -133h14l168 49h7v-14h7 q-57 -112 -203 -112q-155 0 -217 119l-21 98q0 222 126 462v14q-42 28 -245 105z" />
<glyph unicode="|" horiz-adv-x="1793" d="M140 402v7q0 35 336 364q88 83 147 91q14 0 14 -21q0 -15 -189 -168q-84 -99 -84 -126v-14h7q145 21 630 147q81 0 301 84l329 77l70 28q35 -9 35 -21v-21q0 -47 -441 -133l-861 -231l-35 -42q9 -30 266 -175q49 -30 49 -56q-17 -84 -49 -84q-21 0 -280 189l-238 98z" />
<glyph unicode="}" horiz-adv-x="497" d="M55 775l112 140q49 85 49 182v56q0 203 -133 203l-21 28v14q11 28 49 28q130 0 189 -133l14 -98q0 -109 -84 -371q0 -35 189 -70l14 -42q0 -59 -133 -112q-21 -18 -21 -42q98 -187 98 -385q0 -289 -252 -413l-28 21q0 33 84 98q91 109 91 322v35q0 148 -161 308l-14 21 q0 35 84 98l7 28q0 10 -119 56z" />
<glyph unicode="~" horiz-adv-x="1432" d="M95 675q52 36 66 20l9 -10l42 -103q137 -157 380 -96l31 18l37 32q36 31 25 132l9 -1l69 -79q33 -38 -23 -112q-95 -83 -298 -84q-185 -1 -289 120l-46 53q-60 69 -12 110zM690 739q74 103 272 149q179 43 309 -50l57 -41q73 -54 36 -105q-42 -47 -59 -34l-11 8l-65 90 q-169 122 -392 7l-26 -24l-29 -40q-28 -39 -3 -136l-85 62q-41 29 -4 114z" />
<glyph unicode="&#xa1;" />
<glyph unicode="&#xa2;" horiz-adv-x="1139" />
<glyph unicode="&#xa3;" horiz-adv-x="1139" />
<glyph unicode="&#xa4;" horiz-adv-x="1139" />
<glyph unicode="&#xa5;" horiz-adv-x="1139" />
<glyph unicode="&#xa6;" horiz-adv-x="532" />
<glyph unicode="&#xa7;" horiz-adv-x="1139" />
<glyph unicode="&#xa8;" />
<glyph unicode="&#xa9;" horiz-adv-x="1509" />
<glyph unicode="&#xaa;" horiz-adv-x="758" />
<glyph unicode="&#xab;" horiz-adv-x="1139" />
<glyph unicode="&#xac;" horiz-adv-x="1196" />
<glyph unicode="&#xad;" horiz-adv-x="777" d="M85 569q5 56 56 56h280l112 7h168l35 -21q-24 -77 -392 -77h-119q-140 0 -140 35z" />
<glyph unicode="&#xae;" horiz-adv-x="1509" />
<glyph unicode="&#xaf;" horiz-adv-x="1131" />
<glyph unicode="&#xb0;" horiz-adv-x="819" />
<glyph unicode="&#xb1;" horiz-adv-x="1124" />
<glyph unicode="&#xb2;" />
<glyph unicode="&#xb3;" />
<glyph unicode="&#xb4;" d="M176 919q5 29 168 140q212 227 259 245q42 -16 42 -28v-21q-373 -392 -427 -392h-7q-18 0 -35 56z" />
<glyph unicode="&#xb5;" horiz-adv-x="1180" />
<glyph unicode="&#xb6;" horiz-adv-x="1100" />
<glyph unicode="&#xb7;" horiz-adv-x="569" />
<glyph unicode="&#xb8;" />
<glyph unicode="&#xb9;" />
<glyph unicode="&#xba;" horiz-adv-x="748" />
<glyph unicode="&#xbb;" horiz-adv-x="1139" />
<glyph unicode="&#xbc;" horiz-adv-x="1708" />
<glyph unicode="&#xbd;" horiz-adv-x="1708" />
<glyph unicode="&#xbe;" horiz-adv-x="1708" />
<glyph unicode="&#xbf;" horiz-adv-x="1251" />
<glyph unicode="&#xc0;" horiz-adv-x="1041" d="M32 45q77 215 77 315l-7 77q98 57 98 161q165 467 196 476h28l7 -7q14 0 14 -42l21 -7q127 91 168 91q120 0 259 -574q32 -53 49 -294l70 -189q0 -28 -63 -49q-79 0 -140 378l-7 7v7h-210q-378 -12 -378 -63q-79 -343 -133 -357h-21q-28 8 -28 70zM291 493q0 -14 21 -14 q455 8 455 49v49q-38 253 -126 378l-49 35h-28q-47 0 -196 -245q-77 -163 -77 -203v-49zM377 1528q6 26 39 26h13q13 0 220 -298q26 -19 78 -91v-20q0 -11 -32 -19q-83 34 -234 246z" />
<glyph unicode="&#xc1;" horiz-adv-x="1029" d="M32 45q77 215 77 315l-7 77q98 57 98 161q165 467 196 476h28l7 -7q14 0 14 -42l21 -7q127 91 168 91q120 0 259 -574q32 -53 49 -294l70 -189q0 -28 -63 -49q-79 0 -140 378l-7 7v7h-210q-378 -12 -378 -63q-79 -343 -133 -357h-21q-28 8 -28 70zM291 493q0 -14 21 -14 q455 8 455 49v49q-38 253 -126 378l-49 35h-28q-47 0 -196 -245q-77 -163 -77 -203v-49zM468 1191q32 84 240 241l153 88q26 -6 27 -38v-13q1 -13 -291 -229q-18 -26 -89 -80l-19 -1q-12 0 -21 32z" />
<glyph unicode="&#xc2;" horiz-adv-x="1366" />
<glyph unicode="&#xc3;" horiz-adv-x="1032" d="M32 45q77 215 77 315l-7 77q98 57 98 161q165 467 196 476h28l7 -7q14 0 14 -42l21 -7q127 91 168 91q120 0 259 -574q32 -53 49 -294l70 -189q0 -28 -63 -49q-79 0 -140 378l-7 7v7h-210q-378 -12 -378 -63q-79 -343 -133 -357h-21q-28 8 -28 70zM273 1263 q127 122 311 47q19 -71 217 4l47 -94q-174 -90 -296 19q-147 -10 -237 -123zM291 493q0 -14 21 -14q455 8 455 49v49q-38 253 -126 378l-49 35h-28q-47 0 -196 -245q-77 -163 -77 -203v-49z" />
<glyph unicode="&#xc4;" horiz-adv-x="1366" />
<glyph unicode="&#xc5;" horiz-adv-x="1366" />
<glyph unicode="&#xc6;" horiz-adv-x="2048" />
<glyph unicode="&#xc7;" horiz-adv-x="810" d="M44 288v28q0 396 245 602q183 154 329 154q57 0 84 -91l-7 -7l-140 7h-35q-188 -67 -301 -252q-91 -174 -91 -357q0 -226 154 -301q36 -16 76 -23q24 2 40 16.5t39 56.5q40 -3 64 -43l3 -23q124 33 275 156h14v-7q-97 -183 -276 -222l10 -53l5 -36q0 -80 -103 -174 q-30 0 -30 36q41 64 41 113v20q0 33 -26 79q-17 -1 -34 -1q-237 0 -308 203q-28 58 -28 119z" />
<glyph unicode="&#xc8;" horiz-adv-x="658" d="M31 966q105 84 259 84h196q49 0 70 -35q0 -56 -371 -56q-35 0 -35 -168l-14 -196l7 -7h7l133 -7q187 7 294 35l21 -7v-21q0 -49 -427 -119q-17 -19 -21 -84q0 -105 77 -301h7q166 70 280 91q0 17 98 28v7q35 -11 35 -49q0 -51 -203 -70l-280 -154q-40 0 -84 294 q-35 124 -35 378l7 56l-7 70l7 49l-7 70v56zM225 1138q55 98 287 259q44 21 105 28v-14l-224 -210q-46 -46 -119 -91h-28l-7 7l-7 21h-7z" />
<glyph unicode="&#xc9;" horiz-adv-x="665" d="M19 966q105 84 259 84h196q49 0 70 -35q0 -56 -371 -56q-35 0 -35 -168l-14 -196l7 -7h7l133 -7q187 7 294 35l21 -7v-21q0 -49 -427 -119q-17 -19 -21 -84q0 -105 77 -301h7q166 70 280 91q0 17 98 28v7q35 -11 35 -49q0 -51 -203 -70l-280 -154q-40 0 -84 294 q-35 124 -35 378l7 56l-7 70l7 49l-7 70v56zM270 1164q55 98 287 259q44 21 105 28v-14l-224 -210q-46 -46 -119 -91h-28l-7 7l-7 21h-7z" />
<glyph unicode="&#xca;" horiz-adv-x="671" d="M23 966q105 84 259 84h196q49 0 70 -35q0 -56 -371 -56q-35 0 -35 -168l-14 -196l7 -7h7l133 -7q187 7 294 35l21 -7v-21q0 -49 -427 -119q-17 -19 -21 -84q0 -105 77 -301h7q166 70 280 91q0 17 98 28v7q35 -11 35 -49q0 -51 -203 -70l-280 -154q-40 0 -84 294 q-35 124 -35 378l7 56l-7 70l7 49l-7 70v56zM49 1130q0 13 119 119q71 93 112 252l7 7h21q37 -25 126 -175q147 -164 147 -203q-34 -28 -56 -28q-54 0 -203 245h-14q-16 -6 -126 -203l-77 -70h-21q-15 0 -35 56z" />
<glyph unicode="&#xcb;" horiz-adv-x="1366" />
<glyph unicode="&#xcc;" horiz-adv-x="247" d="M28 1596l3 7l11 5l12 -4l60 -169l83 -178l-1 -4q-8 -21 -26 -22q-63 52 -139 324q-8 26 -3 41zM36 668l8 427q11 133 63 133q35 0 35 -84v-77q-8 -672 41 -1001q-28 -70 -77 -70q-56 0 -56 98v70z" />
<glyph unicode="&#xcd;" horiz-adv-x="291" d="M36 668l8 427q11 133 63 133q35 0 35 -84v-77q-8 -672 41 -1001q-28 -70 -77 -70q-56 0 -56 98v70zM72 1266q13 80 209 283q19 20 34 23l9 1l9 -7l2 -12l-115 -137l-112 -162l-4 -1q-22 -3 -32 12z" />
<glyph unicode="&#xce;" horiz-adv-x="569" />
<glyph unicode="&#xcf;" horiz-adv-x="569" />
<glyph unicode="&#xd0;" horiz-adv-x="1479" />
<glyph unicode="&#xd1;" horiz-adv-x="1479" />
<glyph unicode="&#xd2;" horiz-adv-x="627" d="M40 342q0 466 182 574l42 14q28 0 28 -77q168 -53 231 -161q35 -74 70 -280q-58 -293 -168 -392q-86 -49 -196 -49q-69 0 -154 154q-35 121 -35 217zM131 377q0 -245 112 -308l7 -7h56q122 0 189 294v49q0 285 -175 350l-42 14h-63q-80 -40 -84 -287v-105zM169 1299 q20 25 29 23l14 -4q194 -342 183 -379l-2 -5q-4 -12 -46 -12q-19 9 -62 146q-113 194 -116 231z" />
<glyph unicode="&#xd3;" horiz-adv-x="627" d="M40 342q0 466 182 574l42 14q28 0 28 -77q168 -53 231 -161q35 -74 70 -280q-58 -293 -168 -392q-86 -49 -196 -49q-69 0 -154 154q-35 121 -35 217zM131 377q0 -245 112 -308l7 -7h56q122 0 189 294v49q0 285 -175 350l-42 14h-63q-80 -40 -84 -287v-105zM258 993 q4 21 122 101q153 165 188 178q30 -12 30 -21v-15q-270 -284 -310 -284h-5q-13 0 -25 41z" />
<glyph unicode="&#xd4;" horiz-adv-x="1593" />
<glyph unicode="&#xd5;" horiz-adv-x="611" d="M40 342q0 466 182 574l42 14q28 0 28 -77q168 -53 231 -161q35 -74 70 -280q-58 -293 -168 -392q-86 -49 -196 -49q-69 0 -154 154q-35 121 -35 217zM102 1069q89 87 217 33q13 -50 151 3l33 -66q-121 -64 -206 13q-103 -7 -166 -87zM131 377q0 -245 112 -308l7 -7h56 q122 0 189 294v49q0 285 -175 350l-42 14h-63q-80 -40 -84 -287v-105z" />
<glyph unicode="&#xd6;" horiz-adv-x="1593" />
<glyph unicode="&#xd7;" horiz-adv-x="1196" />
<glyph unicode="&#xd8;" horiz-adv-x="1593" />
<glyph unicode="&#xd9;" horiz-adv-x="1479" d="M0 1368q18 42 30 41l21 -1q377 -387 375 -441v-7q-1 -18 -57 -33q-29 6 -134 173q-219 221 -235 268zM36 807q0 63 105 63l14 -42v-119q0 -416 112 -693l28 -21h14q121 0 252 392q49 222 49 518q0 38 49 49q51 0 84 -315q63 -313 77 -469l14 -21q0 -37 -49 -70h-35 q-63 0 -63 308l-21 21q-15 -3 -112 -273q-127 -231 -252 -231q-133 0 -154 182l-35 119q-33 96 -56 483q-9 0 -21 119z" />
<glyph unicode="&#xda;" horiz-adv-x="851" d="M36 807q0 63 105 63l14 -42v-119q0 -416 112 -693l28 -21h14q121 0 252 392q49 222 49 518q0 38 49 49q51 0 84 -315q63 -313 77 -469l14 -21q0 -37 -49 -70h-35q-63 0 -63 308l-21 21q-15 -3 -112 -273q-127 -231 -252 -231q-133 0 -154 182l-35 119q-33 96 -56 483 q-9 0 -21 119zM270 977q5 29 168 140q212 227 259 245q42 -16 42 -28v-21q-373 -392 -427 -392h-7q-18 0 -35 56z" />
<glyph unicode="&#xdb;" horiz-adv-x="1479" />
<glyph unicode="&#xdc;" horiz-adv-x="892" d="M36 807q0 63 105 63l14 -42v-119q0 -416 112 -693l28 -21h14q121 0 252 392q49 222 49 518q0 38 49 49q51 0 84 -315q63 -313 77 -469l14 -21q0 -37 -49 -70h-35q-63 0 -63 308l-21 21q-15 -3 -112 -273q-127 -231 -252 -231q-133 0 -154 182l-35 119q-33 96 -56 483 q-9 0 -21 119zM184 1077l6 4q58 -1 89 -53l4 -6l-10 -38l-6 -4q-55 -4 -78 35q-23 51 -5 62zM527 1160q-19 54 1 66q24 14 74 -29q23 -38 3 -72l-6 -3q-17 -9 -72 38z" />
<glyph unicode="&#xdd;" horiz-adv-x="1366" />
<glyph unicode="&#xde;" horiz-adv-x="1366" />
<glyph unicode="&#xdf;" horiz-adv-x="1251" />
<glyph unicode="&#xe0;" horiz-adv-x="725" d="M29 102q37 277 182 448q112 196 343 196q70 0 70 -420q21 -212 56 -392q0 -33 -63 -42q-70 0 -70 224q-28 280 -49 280q-38 -10 -91 -196q-111 -238 -266 -238h-7q-105 40 -105 140zM134 67l21 -21h21q121 110 203 259q3 30 63 105l35 224v7l-21 21h-28q-78 0 -266 -308 q-28 -124 -28 -245v-42zM323 1446q7 28 42 28h14q14 0 238 -322q28 -20 84 -98v-21q0 -12 -35 -21q-89 37 -252 266z" />
<glyph unicode="&#xe1;" horiz-adv-x="811" d="M14 109q98 383 301 602q120 98 329 98q51 0 63 -126q0 -456 35 -777q0 -40 -49 -63q-46 0 -70 63l7 105v147l-14 112v49l-7 35h-14q-48 -19 -119 -189q-186 -238 -301 -238q-154 0 -154 119zM98 46q14 -49 49 -49q207 96 287 238l126 203q28 81 28 140v7q0 161 -56 161 h-7q-109 0 -287 -252q-140 -273 -140 -448zM399 914q44 130 427 413q37 28 63 28h14l14 -14v-21l-231 -196l-231 -238h-7q-38 0 -49 28z" />
<glyph unicode="&#xe2;" horiz-adv-x="998" d="M41 175q29 206 168 392q108 91 231 91q53 0 231 -49q28 35 49 35q99 0 119 -196q51 -229 133 -413q0 -42 -42 -70q-81 0 -126 322q-19 54 -42 63q-22 0 -77 -182q-129 -280 -301 -280q-191 0 -315 161zM139 119q0 -106 217 -140h14q179 0 287 434v63q-58 84 -147 84h-77 q-187 0 -294 -392v-49zM139 945v14q0 39 154 203q87 178 119 210h14v7q121 -87 273 -364l63 -91q-11 -35 -42 -35q-92 0 -161 189q-86 133 -105 133q-20 -5 -210 -301l-21 -7q-83 24 -84 42z" />
<glyph unicode="&#xe3;" horiz-adv-x="823" d="M40 107q0 181 54 292.5t174.5 276t289.5 236.5l63 7q105 -37 105 -105v-140l-7 -189q0 -288 70 -504q-5 -77 -63 -77q-61 0 -77 434l-14 98h-7q-126 -257 -217 -371q-119 -119 -210 -119q-161 36 -161 161zM131 135q0 -77 63 -77h35q215 0 378 567v147q0 52 -21 56h-14 q-168 -37 -378 -399q-63 -173 -63 -245v-49zM216 1144q127 122 311 47q19 -71 217 4l47 -94q-174 -90 -296 19q-147 -10 -237 -123z" />
<glyph unicode="&#xe4;" horiz-adv-x="841" d="M33 212v7q0 225 266 469q64 28 154 28q259 0 259 -105l126 -637q-7 -29 -35 -49q-83 0 -98 224q-36 266 -77 266q-61 -218 -161 -392q-108 -147 -175 -147q-121 0 -217 126q-42 121 -42 210zM131 1136q11 28 21 28h14q51 0 98 -63q0 -18 -42 -42q-91 19 -91 77zM138 93 q0 -88 91 -112h35q99 0 224 252q84 242 84 301v35q0 30 -84 56h-56q-137 0 -266 -238q-28 -104 -28 -294zM418 1101q14 32 28 35q81 0 91 -70v-7l-28 -21q-59 0 -91 63z" />
<glyph unicode="&#xe5;" horiz-adv-x="1139" />
<glyph unicode="&#xe6;" horiz-adv-x="1821" />
<glyph unicode="&#xe7;" horiz-adv-x="816" d="M41 235v35q0 359 322 602l91 21q57 -20 77 -49l-154 -56q-245 -180 -245 -476v-14q0 -168 154 -252l40 -6l-1 3q44 5 71 58q71 -11 74 -65q90 16 159 87h28v-28q-50 -90 -195 -140l21 -45l4 -29q0 -65 -83 -141q-25 0 -25 29q33 52 33 91v17q0 25 -18 60l-10 -3 q-147 0 -294 147q-49 87 -49 154z" />
<glyph unicode="&#xe8;" horiz-adv-x="643" d="M40 300q41 496 280 560l84 14q182 -33 182 -161l7 -7v-7q-71 -273 -140 -273q-83 -91 -238 -91h-84l-7 -77q0 -301 161 -301q145 0 273 294h7q16 0 21 -49q-98 -322 -245 -322l-7 -7l-21 -7q-102 0 -210 140q-63 214 -63 294zM145 440q0 -31 119 -35q171 83 238 266v7 q0 119 -119 119q-144 0 -238 -308v-49zM306 1399l14 14h14q42 -44 154 -287q91 -79 91 -98q-10 -28 -21 -28h-7q-147 94 -147 154q-98 187 -98 245z" />
<glyph unicode="&#xe9;" horiz-adv-x="677" d="M44 488q0 115 105 301q111 84 224 84q164 0 245 -217v-63q0 -249 -322 -294l-140 42l-14 -21v-35q0 -248 133 -329l42 -7h28q106 0 266 294l21 14l7 -7h7q-112 -336 -161 -336q-38 -49 -126 -49q-206 0 -259 203q-56 251 -56 420zM135 481q0 -58 147 -84h28q97 0 203 147 l14 70v35q-33 154 -154 154q-186 0 -238 -294v-28zM232 1031q55 98 287 259q44 21 105 28v-14l-224 -210q-46 -46 -119 -91h-28l-7 7l-7 21h-7z" />
<glyph unicode="&#xea;" horiz-adv-x="669" d="M52 233v7q0 346 154 448q48 35 91 35q196 -39 196 -168q0 -184 -182 -315l-112 -35l-49 7l-14 -49q0 -154 84 -154h91q126 0 280 308l21 14h7l14 -14q0 -136 -161 -329q-82 -53 -196 -77q-196 71 -196 168q-21 8 -28 154zM108 898q0 55 238 420h14q67 0 252 -259v-7 l-35 -21h-14q-58 0 -154 140l-28 14q-73 -59 -175 -252q0 -42 -70 -98h-7q-17 0 -21 63zM136 324l28 -28h7q96 0 210 161l21 105v7q-7 56 -63 56h-49q-105 0 -154 -231v-70z" />
<glyph unicode="&#xeb;" horiz-adv-x="748" d="M51 394q52 511 301 511h28q117 0 196 -196l14 -84q-19 -245 -217 -245q-87 0 -210 119h-7l-14 -14v-56q0 -327 161 -406l49 -7h49q104 0 273 287l21 14h14l7 -21q-109 -378 -329 -378q-216 0 -322 392zM156 1353v14l42 7q51 0 77 -42q0 -28 -56 -35q-45 16 -63 56z M184 625q76 -65 98 -133l56 -21h28q78 0 133 126q0 141 -105 231h-21q-123 0 -189 -182v-21zM450 1367v28l21 7q70 -20 70 -42q0 -30 -28 -49q-17 0 -63 56z" />
<glyph unicode="&#xec;" horiz-adv-x="303" d="M-23 1224v7l21 7q308 -166 308 -217q-12 -35 -35 -35q-293 163 -294 238zM61 636q24 133 49 133h7q56 0 70 -511q42 -177 42 -245q-10 -28 -21 -28h-21q-69 0 -112 602q-12 0 -14 49z" />
<glyph unicode="&#xed;" horiz-adv-x="385" d="M3 743v21l189 147l259 238h28l21 -28q0 -37 -322 -315q-79 -89 -112 -105h-21zM150 575l7 35h14q56 -50 126 -504l42 -119l-21 -28h-21q-93 0 -147 616z" />
<glyph unicode="&#xee;" horiz-adv-x="569" d="M36 852q0 15 147 189q64 146 98 161q32 0 182 -154q70 -53 70 -105q-14 -32 -28 -35h-7q-39 0 -189 161q-36 -24 -154 -224l-42 -35h-14q-35 0 -63 42zM302 628q16 105 42 105h7l98 -728l-21 -28h-7q-85 0 -119 651z" />
<glyph unicode="&#xef;" horiz-adv-x="569" d="M18 1077v35q0 16 35 21q44 0 84 -56v-14q-21 -35 -49 -35q-37 0 -70 49zM207 783q4 42 21 42h7q98 0 112 -238l56 -560q-14 -31 -28 -35h-28q-63 0 -63 441q0 96 -77 350zM312 1126q9 35 21 35h7q40 0 84 -49q0 -38 -35 -56q-47 0 -77 70z" />
<glyph unicode="&#xf0;" horiz-adv-x="1139" />
<glyph unicode="&#xf1;" horiz-adv-x="1139" />
<glyph unicode="&#xf2;" horiz-adv-x="777" d="M25 369q0 357 294 546q29 71 49 77h21q252 -86 301 -182q70 -125 70 -210q0 -487 -287 -651l-28 -7l-49 7q0 -19 -56 -28q-168 55 -273 217q-42 76 -42 231zM116 271q54 -224 119 -224q82 -70 119 -70q192 86 252 238l84 210v63q0 303 -203 385h-7q-56 -63 -154 -63 q-203 -147 -203 -406l-7 -84v-49zM186 1419v7q0 14 42 21q85 0 315 -301q54 -42 70 -77v-7l-21 -21q-99 0 -322 315q-19 0 -84 63z" />
<glyph unicode="&#xf3;" horiz-adv-x="710" d="M26 269q0 145 182 336q133 105 231 105q124 0 196 -168l14 -119q0 -289 -168 -441q-44 -22 -161 -42q-200 0 -287 224zM124 192q0 -148 196 -175q151 0 217 224q42 134 42 203q-32 168 -91 168h-21q-284 0 -343 -357v-63zM173 829v14q307 300 497 371q108 89 154 98 q28 -10 28 -21v-14l-182 -112q-434 -336 -476 -336h-21z" />
<glyph unicode="&#xf4;" horiz-adv-x="804" d="M42 543q-14 2 42 77q195 195 238 196q14 0 56 63l35 14q139 -23 273 -154q98 -165 98 -280q-18 -183 -147 -378q-112 -126 -259 -126q-136 0 -238 119q-98 177 -98 469zM49 1124q0 28 112 42q189 180 308 364l28 7q64 0 196 -273q35 -16 77 -70v-21q0 -21 -77 -21 q-60 0 -161 217q-25 28 -49 28q-45 -38 -182 -245q-92 -77 -147 -77q-71 0 -105 49zM161 270q0 -197 182 -231h21q215 0 308 294l14 98v77q0 166 -161 259h-7q-255 0 -343 -266l-14 -126v-105z" />
<glyph unicode="&#xf5;" horiz-adv-x="680" d="M36 421q61 266 315 266q208 0 294 -231q0 -236 -168 -469q-79 -77 -189 -77q-93 0 -196 196q-28 88 -56 315zM64 891q127 122 311 47q19 -71 217 4l47 -94q-174 -90 -296 19q-147 -10 -237 -123zM134 344q37 -343 154 -343q159 0 252 343v77q0 147 -168 182h-14 q-217 -51 -217 -217z" />
<glyph unicode="&#xf6;" horiz-adv-x="677" d="M36 421q61 266 315 266q208 0 294 -231q0 -236 -168 -469q-79 -77 -189 -77q-93 0 -196 196q-28 88 -56 315zM119 956q26 21 49 21q77 -12 77 -70q-7 -28 -35 -28q-91 17 -91 77zM134 344q37 -343 154 -343q159 0 252 343v77q0 147 -168 182h-14q-217 -51 -217 -217z M398 940l21 21v7q54 0 84 -56q-14 -63 -63 -63q-42 42 -42 91z" />
<glyph unicode="&#xf7;" horiz-adv-x="1124" />
<glyph unicode="&#xf8;" horiz-adv-x="1251" />
<glyph unicode="&#xf9;" horiz-adv-x="744" d="M37 442q15 140 42 140h7q16 0 28 -77l-7 -7v-203q18 -266 133 -266h21q199 0 259 693l21 14h7q49 -19 49 -140l-7 -126q16 -294 98 -294q32 -14 35 -28v-21q-12 -64 -56 -105h-14q-73 76 -105 231h-7q-26 0 -91 -175q-98 -175 -189 -175q-77 0 -175 161q-35 124 -49 378z M198 1086v14h7q27 0 224 -182q25 0 56 -42v-21q0 -12 -35 -21q-210 73 -210 147q-42 58 -42 105z" />
<glyph unicode="&#xfa;" horiz-adv-x="703" d="M29 513v56q0 52 21 56h14q37 0 49 -343q48 -287 105 -287h35q61 44 119 175q63 278 91 511h14v7q65 0 91 -273q119 -324 119 -392q-5 -35 -21 -35h-7q-27 4 -112 259q-35 67 -56 77h-7q-19 -21 -63 -217q-92 -224 -168 -224q-80 0 -154 154q-70 350 -70 476zM176 919 q5 29 168 140q212 227 259 245q42 -16 42 -28v-21q-373 -392 -427 -392h-7q-18 0 -35 56z" />
<glyph unicode="&#xfb;" horiz-adv-x="740" d="M51 371v35q14 246 49 343h14q19 0 28 -70q-21 -88 -21 -154v-196q21 -340 77 -350l28 -7h21q138 0 252 553q17 308 42 308q42 -29 112 -448q77 -297 77 -336v-14l-21 -21h-14q-45 0 -98 280q-43 105 -56 105q-12 -9 -119 -350q-83 -168 -140 -168q0 -18 -35 -35 q-171 0 -196 525zM51 1022q0 13 119 119q71 93 112 252l7 7h21q37 -25 126 -175q147 -164 147 -203q-34 -28 -56 -28q-54 0 -203 245h-14q-16 -6 -126 -203l-77 -70h-21q-15 0 -35 56z" />
<glyph unicode="&#xfc;" horiz-adv-x="796" d="M32 579q12 231 35 231h7q39 0 49 -476q94 -308 196 -308q116 0 217 343q27 0 63 420q20 21 42 21q45 0 49 -105v-28l-7 -98q0 -226 98 -525q-5 -21 -28 -28q-43 0 -133 287h-14q-13 0 -98 -259q-84 -133 -161 -133q-184 0 -301 490zM116 1209q11 28 21 28h21 q56 -32 56 -77l-7 -35h-7q-51 0 -84 84zM487 1209q0 19 35 35q49 -14 49 -91l-7 -21h-28q-49 40 -49 77z" />
<glyph unicode="&#xfd;" horiz-adv-x="1024" />
<glyph unicode="&#xfe;" horiz-adv-x="1139" />
<glyph unicode="&#xff;" horiz-adv-x="1024" />
<glyph unicode="&#x152;" horiz-adv-x="2048" />
<glyph unicode="&#x153;" horiz-adv-x="1933" />
<glyph unicode="&#x178;" horiz-adv-x="1366" />
<glyph unicode="&#x2c6;" />
<glyph unicode="&#x2dc;" />
<glyph unicode="&#x2000;" horiz-adv-x="804" />
<glyph unicode="&#x2001;" horiz-adv-x="1608" />
<glyph unicode="&#x2002;" horiz-adv-x="804" />
<glyph unicode="&#x2003;" horiz-adv-x="1608" />
<glyph unicode="&#x2004;" horiz-adv-x="536" />
<glyph unicode="&#x2005;" horiz-adv-x="402" />
<glyph unicode="&#x2006;" horiz-adv-x="268" />
<glyph unicode="&#x2007;" horiz-adv-x="268" />
<glyph unicode="&#x2008;" horiz-adv-x="201" />
<glyph unicode="&#x2009;" horiz-adv-x="321" />
<glyph unicode="&#x200a;" horiz-adv-x="89" />
<glyph unicode="&#x2010;" horiz-adv-x="777" d="M85 569q5 56 56 56h280l112 7h168l35 -21q-24 -77 -392 -77h-119q-140 0 -140 35z" />
<glyph unicode="&#x2011;" horiz-adv-x="777" d="M85 569q5 56 56 56h280l112 7h168l35 -21q-24 -77 -392 -77h-119q-140 0 -140 35z" />
<glyph unicode="&#x2012;" horiz-adv-x="777" d="M85 569q5 56 56 56h280l112 7h168l35 -21q-24 -77 -392 -77h-119q-140 0 -140 35z" />
<glyph unicode="&#x2013;" horiz-adv-x="1139" />
<glyph unicode="&#x2014;" horiz-adv-x="2048" />
<glyph unicode="&#x2018;" horiz-adv-x="391" d="M47 750l7 49l49 105v14l-28 84q0 99 119 119h7q82 0 119 -98l-7 -28q-140 -163 -140 -252v-28q0 -66 56 -154q0 -49 -42 -49q-140 128 -140 238z" />
<glyph unicode="&#x2019;" horiz-adv-x="391" d="M47 1023q37 98 119 98h7q119 -20 119 -119l-28 -84v-14l49 -105l7 -49q0 -110 -140 -238q-42 0 -42 49q56 88 56 154v28q0 89 -140 252z" />
<glyph unicode="&#x201a;" horiz-adv-x="455" />
<glyph unicode="&#x201c;" d="M41 1022v14l6 63q56 107 56 126l-17 70q20 53 78 84q46 0 95 -126l-16 -49q-96 -98 -96 -175v-49q0 -102 28 -224l-22 -42h-17q-81 0 -95 308zM377 938l50 189q0 133 84 133q101 -12 101 -98q0 -54 -34 -98q-100 -64 -100 -203q0 -77 61 -217q-17 -42 -33 -42 q-87 0 -129 336z" />
<glyph unicode="&#x201d;" horiz-adv-x="639" d="M41 1162q0 86 101 98q84 0 84 -133l50 -189q-42 -336 -129 -336q-16 0 -33 42q61 140 61 217q0 139 -100 203q-34 44 -34 98zM394 1253q49 126 95 126q58 -31 78 -84l-17 -70q0 -19 56 -126l6 -63v-14q-14 -308 -95 -308h-17l-22 42q28 122 28 224v49q0 77 -96 175z" />
<glyph unicode="&#x201e;" />
<glyph unicode="&#x2022;" horiz-adv-x="717" />
<glyph unicode="&#x2026;" horiz-adv-x="2048" />
<glyph unicode="&#x202f;" horiz-adv-x="321" />
<glyph unicode="&#x2039;" />
<glyph unicode="&#x203a;" />
<glyph unicode="&#x205f;" horiz-adv-x="402" />
<glyph unicode="&#x20ac;" horiz-adv-x="1139" />
<glyph unicode="&#x2122;" horiz-adv-x="2048" />
<glyph unicode="&#x25fc;" horiz-adv-x="840" d="M0 0v840h840v-840h-840z" />
</font>
</defs>
</svg>
